<svg xmlns="http://www.w3.org/2000/svg" aria-hidden="true" style="position:absolute;width:0;height:0;overflow:hidden">
  <defs>
    <symbol id="icon-coin" viewBox="0 0 10 10">
      <path d="M5 .833C2.708.833.833 2.708.833 5S2.708 9.167 5 9.167 9.167 7.292 9.167 5 7.292.833 5 .833zm0 7.5c-1.833 0-3.333-1.5-3.333-3.333S3.167 1.667 5 1.667c1.833 0 3.333 1.5 3.333 3.333S6.833 8.333 5 8.333z"/>
      <path d="M5.542 4.583H4.459c-.208 0-.375-.167-.375-.375s.167-.375.375-.375h1.542c.25 0 .417-.167.417-.417s-.167-.417-.417-.417h-.583v-.375c0-.25-.167-.417-.417-.417s-.417.167-.417.417v.375h-.125a1.209 1.209 0 0 0 0 2.416h1.042c.208 0 .375.167.375.375s-.167.375-.375.375H3.959c-.25 0-.417.167-.417.417s.167.417.417.417h.625v.375c0 .25.167.417.417.417s.417-.167.417-.417v-.375h.125a1.209 1.209 0 0 0 0-2.416z"/>
    </symbol>
    <symbol id="icon-chocolate-bar" viewBox="0 0 10 10">
      <path d="m4.319.754 2.352 2.355.025-.025c.049-.048.115-.076.184-.076s.135.025.186.072l.273.273a.266.266 0 0 1 .026.342l-.001.002-.045.06 1.925 1.925a.436.436 0 0 1 0 .619L6.297 9.248a.436.436 0 0 1-.619 0l-1.39-1.39a.262.262 0 0 1-.392.022l-.812-.813c-.048-.049-.076-.115-.076-.184s.025-.135.072-.186l.002-.002.024-.024L.754 4.319a.436.436 0 0 1 0-.619L3.701.753a.436.436 0 0 1 .619 0zm2.057 2.65-.549-.548a.185.185 0 0 0-.266 0L4.442 3.975a.203.203 0 0 0-.056.135c0 .025.005.05.015.073.01.023.024.044.041.062l.547.547.191-.191-.489-.489 1.003-1.006.49.492.192-.192zM4.79 4.989l-.548-.548a.185.185 0 0 0-.266 0L2.854 5.563a.185.185 0 0 0 0 .266l.547.547.192-.192-.491-.489 1.006-1.003.489.488.191-.191zM2.757 2.56l1.119 1.119a.183.183 0 0 0 .266-.003l1.119-1.119a.18.18 0 0 0 .057-.131h.003a.192.192 0 0 0-.056-.134L4.146 1.173c-.018-.018-.038-.032-.062-.041s-.048-.015-.073-.015c-.025 0-.05.005-.073.015s-.044.024-.062.041L2.757 2.295a.185.185 0 0 0 0 .266zM1.172 4.145l1.119 1.119a.185.185 0 0 0 .266 0l1.119-1.119c.018-.017.033-.038.042-.061s.014-.048.014-.073h.003a.187.187 0 0 0-.056-.134L2.56 2.758a.185.185 0 0 0-.266 0L1.172 3.88a.185.185 0 0 0 0 .266zM3.339 6.88l.738.738 3.011-4.075-.205-.205-3.545 3.541z"/>
      <path d="m4.319.754 2.352 2.355.025-.025c.049-.048.115-.076.184-.076s.135.025.186.072l.273.273a.266.266 0 0 1 .026.342l-.001.002-.045.06 1.925 1.925a.436.436 0 0 1 0 .619L6.297 9.248a.436.436 0 0 1-.619 0l-1.39-1.39a.262.262 0 0 1-.392.022l-.812-.813c-.048-.049-.076-.115-.076-.184s.025-.135.072-.186l.002-.002.024-.024L.754 4.319a.436.436 0 0 1 0-.619L3.701.753a.436.436 0 0 1 .619 0zm2.057 2.65-.549-.548a.185.185 0 0 0-.266 0L4.442 3.975a.203.203 0 0 0-.056.135c0 .025.005.05.015.073.01.023.024.044.041.062l.547.547.191-.191-.489-.489 1.003-1.006.49.492.192-.192zM4.79 4.989l-.548-.548a.185.185 0 0 0-.266 0L2.854 5.563a.185.185 0 0 0 0 .266l.547.547.192-.192-.491-.489 1.006-1.003.489.488.191-.191zM2.757 2.56l1.119 1.119a.183.183 0 0 0 .266-.003l1.119-1.119a.18.18 0 0 0 .057-.131h.003a.192.192 0 0 0-.056-.134L4.146 1.173c-.018-.018-.038-.032-.062-.041s-.048-.015-.073-.015c-.025 0-.05.005-.073.015s-.044.024-.062.041L2.757 2.295a.185.185 0 0 0 0 .266zM1.172 4.145l1.119 1.119a.185.185 0 0 0 .266 0l1.119-1.119c.018-.017.033-.038.042-.061s.014-.048.014-.073h.003a.187.187 0 0 0-.056-.134L2.56 2.758a.185.185 0 0 0-.266 0L1.172 3.88a.185.185 0 0 0 0 .266zM3.339 6.88l.738.738 3.011-4.075-.205-.205-3.545 3.541z"/>
    </symbol>
    <symbol id="icon-instagram" viewBox="0 0 10 10">
      <path stroke-linecap="round" stroke-linejoin="round" stroke-width=".833" d="M7.083.833H2.916A2.083 2.083 0 0 0 .833 2.916v4.167c0 1.151.933 2.083 2.083 2.083h4.167a2.083 2.083 0 0 0 2.083-2.083V2.916A2.083 2.083 0 0 0 7.083.833z"/>
      <path stroke-linecap="round" stroke-linejoin="round" stroke-width=".833" d="M6.667 4.738a1.672 1.672 0 0 1-.899 1.733 1.669 1.669 0 0 1-2.395-1.224 1.661 1.661 0 0 1 .878-1.744 1.665 1.665 0 0 1 2.416 1.235zM7.292 2.708h.004"/>
    </symbol>
    <symbol id="icon-spoon" viewBox="0 0 10 10">
      <path d="M4.829 4.408a1.61 1.61 0 0 1-.368-1.026C4.461 2.031 6.08.681 7.699.681A1.62 1.62 0 0 1 9.318 2.3c0 1.619-1.349 3.239-2.702 3.239-.364 0-.729-.123-1.025-.368L1.604 9.159a.54.54 0 1 1-.764-.764l3.989-3.988z"/>
    </symbol>
    <symbol id="icon-menu" viewBox="0 0 10 10">
      <path stroke-linecap="round" stroke-linejoin="round" stroke-width=".781" d="M1.25 5h7.5m-7.5-2.5h7.5m-7.5 5h7.5"/>
    </symbol>
    <symbol id="icon-twitter" viewBox="0 0 10 10">
      <path stroke-linecap="round" stroke-linejoin="round" stroke-width=".833" d="M9.583 1.25a4.565 4.565 0 0 1-1.308.638 1.864 1.864 0 0 0-2.953.177A1.867 1.867 0 0 0 5 3.138v.417c-.732.019-1.458-.143-2.112-.473S1.463 1.969 1.042 1.369c0 0-1.458 4.048 2.292 5.715a4.84 4.84 0 0 1-2.917.833c3.75 2.083 8.333 0 8.333-4.792 0-.116-.012-.232-.033-.346.425-.419.725-.949.867-1.529z"/>
    </symbol>
    <symbol id="icon-chocolate-logo" viewBox="0 0 9 10">
      <path stroke-linecap="round" stroke-linejoin="round" stroke-width=".833" d="m6.344 7.462-4.433-2.77m1.223-2.005 4.433 2.77M2.905 8.083l3.667-6.016m1.504 2.555c-.95-.594-1.323-1.057-.712-2.06L4.356.682.689 6.698l4.433 2.77 2.954-4.846z"/>
    </symbol>
    <symbol id="icon-vector" viewBox="0 0 10 10">
      <path d="M5.296 5.583a.417.417 0 0 1-.592 0L2.796 3.67a.417.417 0 0 0-.592.588l1.913 1.913a1.25 1.25 0 0 0 1.766 0l1.913-1.913a.42.42 0 0 0 0-.588.417.417 0 0 0-.592 0L5.296 5.583z"/>
    </symbol>
    <symbol id="icon-close" viewBox="0 0 10 10">
      <path stroke-linecap="round" stroke-linejoin="round" stroke-width=".909" d="m7.5 2.5-5 5M2.5 2.5l5 5"/>
    </symbol>
  </defs>
</svg>
